{"title":"Jessie J Ft. Big Sean &amp; Dizzee Rascal - Wild [Music Video] 7","uid":9315400,"size":56554985,"categoryP":"video","categoryS":"music_videos","magnet":"?xt=urn:btih:26e3404579ab82b3ddb1017fc99e8fc769526a63&amp;dn=Jessie+J+Ft.+Big+Sean+%26amp%3B+Dizzee+Rascal+-+Wild+%5BMusic+Video%5D+7&amp;tr=udp%3A%2F%2Ftracker.openbittorrent.com%3A80&amp;tr=udp%3A%2F%2Fopen.demonii.com%3A1337&amp;tr=udp%3A%2F%2Ftracker.coppersurfer.tk%3A6969&amp;tr=udp%3A%2F%2Fexodus.desync.com%3A6969","seeders":1,"leechers":0,"uploader":"Sbyky","files":1,"time":1386461407,"description":"\n\nGeneral\nComplete name                            : Jessie J Ft. Big Sean &amp; Dizzee Rascal - Wild [Music Video] 720p [Sbyky].MP4\nFormat                                   : MPEG-4\nFormat profile                           : Base Media\nCodec ID                                 : isom\nFile size                                : 53.9 MiB\nDuration                                 : 4mn 47s\nOverall bit rate mode                    : Variable\nOverall bit rate                         : 1 575 Kbps\nEncoded date                             : UTC 2013-09-11 01:35:01\nTagged date                              : UTC 2013-09-11 01:35:01\n\nVideo\nID                                       : 1\nFormat                                   : AVC\nFormat/Info                              : Advanced Video Codec\nFormat profile                           : &lt;a class=&quot;__cf_email__&quot; href=&quot;/cdn-cgi/l/email-protection&quot; data-cfemail=&quot;084569616648443b2639&quot;&gt;[email&amp;#160;protected]&lt;/a&gt;&lt;script data-cfhash='f9e31' type=&quot;text/javascript&quot;&gt;\n/* &lt;![CDATA[ */!function(){try{var t=&quot;currentScript&quot;in document?document.currentScript:function(){for(var t=document.getElementsByTagName(&quot;script&quot;),e=t.length;e--;)if(t[e].getAttribute(&quot;data-cfhash&quot;))return t[e]}();if(t&amp;&amp;t.previousSibling){var e,r,n,i,c=t.previousSibling,a=c.getAttribute(&quot;data-cfemail&quot;);if(a){for(e=&quot;&quot;,r=parseInt(a.substr(0,2),16),n=2;a.length-n;n+=2)i=parseInt(a.substr(n,2),16)^r,e+=String.fromCharCode(i);e=document.createTextNode(e),c.parentNode.replaceChild(e,c)}t.parentNode.removeChild(t);}}catch(u){}}()/* ]]&gt; */&lt;/script&gt;\nFormat settings, CABAC                   : Yes\nFormat settings, ReFrames                : 3 frames\nCodec ID                                 : avc1\nCodec ID/Info                            : Advanced Video Coding\nDuration                                 : 4mn 47s\nBit rate                                 : 1 319 Kbps\nWidth                                    : 1 280 pixels\nHeight                                   : 720 pixels\nDisplay aspect ratio                     : 16:9\nFrame rate mode                          : Constant\nFrame rate                               : 25.000 fps\nColor space                              : YUV\nChroma subsampling                       : 4:2:0\nBit depth                                : 8 bits\nScan type                                : Progressive\nBits/(Pixel*Frame)                       : 0.057\nStream size                              : 45.1 MiB (84%)\nEncoded date                             : UTC 2013-09-11 01:35:01\nTagged date                              : UTC 2013-09-11 01:35:01\n\nAudio\nID                                       : 2\nFormat                                   : AAC\nFormat/Info                              : Advanced Audio Codec\nFormat profile                           : LC\nCodec ID                                 : 40\nDuration                                 : 4mn 47s\nBit rate mode                            : Variable\nBit rate                                 : 254 Kbps\nChannel(s)                               : 2 channels\nChannel positions                        : Front: L R\nSampling rate                            : 44.1 KHz\nCompression mode                         : Lossy\nDelay relative to video                  : 40ms\nStream size                              : 8.69 MiB (16%)\nEncoded date                             : UTC 2013-09-11 01:30:47\nTagged date                              : UTC 2013-09-11 01:30:47\n\nShared By Sbyky\n","torrent":{"xt":"urn:btih:26e3404579ab82b3ddb1017fc99e8fc769526a63","amp;dn":"Jessie+J+Ft.+Big+Sean+%26amp%3B+Dizzee+Rascal+-+Wild+%5BMusic+Video%5D+7","amp;tr":["udp%3A%2F%2Ftracker.openbittorrent.com%3A80","udp%3A%2F%2Fopen.demonii.com%3A1337","udp%3A%2F%2Ftracker.coppersurfer.tk%3A6969","udp%3A%2F%2Fexodus.desync.com%3A6969"],"infoHash":"26e3404579ab82b3ddb1017fc99e8fc769526a63","infoHashBuffer":{"type":"Buffer","data":[38,227,64,69,121,171,130,179,221,177,1,127,201,158,143,199,105,82,106,99]},"announce":[],"urlList":[]}}